<svg id="visual" viewBox="0 0 900 600" width="900" height="600" xmlns="http://www.w3.org/2000/svg" xmlns:xlink="http://www.w3.org/1999/xlink" version="1.1"><rect x="0" y="0" width="900" height="600" fill="#ffffff"></rect><path d="M0 461L13.7 458.8C27.3 456.7 54.7 452.3 82 451.7C109.3 451 136.7 454 163.8 450C191 446 218 435 245.2 436.3C272.3 437.7 299.7 451.3 327 458.7C354.3 466 381.7 467 409 457.7C436.3 448.3 463.7 428.7 491 420.2C518.3 411.7 545.7 414.3 573 417.7C600.3 421 627.7 425 654.8 432.3C682 439.7 709 450.3 736.2 450C763.3 449.7 790.7 438.3 818 429.8C845.3 421.3 872.7 415.7 886.3 412.8L900 410L900 601L886.3 601C872.7 601 845.3 601 818 601C790.7 601 763.3 601 736.2 601C709 601 682 601 654.8 601C627.7 601 600.3 601 573 601C545.7 601 518.3 601 491 601C463.7 601 436.3 601 409 601C381.7 601 354.3 601 327 601C299.7 601 272.3 601 245.2 601C218 601 191 601 163.8 601C136.7 601 109.3 601 82 601C54.7 601 27.3 601 13.7 601L0 601Z" fill="#cce6e7"></path><path d="M0 481L13.7 487.2C27.3 493.3 54.7 505.7 82 504.8C109.3 504 136.7 490 163.8 481.2C191 472.3 218 468.7 245.2 468.3C272.3 468 299.7 471 327 470.7C354.3 470.3 381.7 466.7 409 469.7C436.3 472.7 463.7 482.3 491 485.2C518.3 488 545.7 484 573 482.2C600.3 480.3 627.7 480.7 654.8 479.8C682 479 709 477 736.2 477.8C763.3 478.7 790.7 482.3 818 489.8C845.3 497.3 872.7 508.7 886.3 514.3L900 520L900 601L886.3 601C872.7 601 845.3 601 818 601C790.7 601 763.3 601 736.2 601C709 601 682 601 654.8 601C627.7 601 600.3 601 573 601C545.7 601 518.3 601 491 601C463.7 601 436.3 601 409 601C381.7 601 354.3 601 327 601C299.7 601 272.3 601 245.2 601C218 601 191 601 163.8 601C136.7 601 109.3 601 82 601C54.7 601 27.3 601 13.7 601L0 601Z" fill="#b4dfe0"></path><path d="M0 534L13.7 539.3C27.3 544.7 54.7 555.3 82 558.8C109.3 562.3 136.7 558.7 163.8 556.3C191 554 218 553 245.2 554.8C272.3 556.7 299.7 561.3 327 562.2C354.3 563 381.7 560 409 556.7C436.3 553.3 463.7 549.7 491 550.5C518.3 551.3 545.7 556.7 573 560C600.3 563.3 627.7 564.7 654.8 563C682 561.3 709 556.7 736.2 553.5C763.3 550.3 790.7 548.7 818 550.8C845.3 553 872.7 559 886.3 562L900 565L900 601L886.3 601C872.7 601 845.3 601 818 601C790.7 601 763.3 601 736.2 601C709 601 682 601 654.8 601C627.7 601 600.3 601 573 601C545.7 601 518.3 601 491 601C463.7 601 436.3 601 409 601C381.7 601 354.3 601 327 601C299.7 601 272.3 601 245.2 601C218 601 191 601 163.8 601C136.7 601 109.3 601 82 601C54.7 601 27.3 601 13.7 601L0 601Z" fill="#9bd7d8"></path></svg>